<mxfile host="app.diagrams.net" modified="2021-02-17T15:33:47.593Z" agent="5.0 (Windows NT 10.0; Win64; x64) AppleWebKit/537.36 (KHTML, like Gecko) Chrome/88.0.4324.150 Safari/537.36" etag="3iyIfPIUxfe2K3hjiI8u" version="14.2.9" type="github" pages="7">
  <diagram id="p20fMa0RP09D1RsRWbcO" name="Overall">
    <mxGraphModel dx="2489" dy="774" grid="1" gridSize="10" guides="1" tooltips="1" connect="1" arrows="1" fold="1" page="1" pageScale="1" pageWidth="827" pageHeight="1169" math="0" shadow="0">
      <root>
        <mxCell id="0" />
        <mxCell id="1" parent="0" />
        <mxCell id="HSUAWQPKj-lR8qvbmg6g-1" value="&lt;b&gt;Architecture Forum&lt;br&gt;&lt;/b&gt;" style="rounded=1;whiteSpace=wrap;html=1;verticalAlign=top;strokeWidth=1;strokeColor=#020912;dashed=1;fontSize=32;" vertex="1" parent="1">
          <mxGeometry x="374" y="10" width="329" height="750" as="geometry" />
        </mxCell>
        <mxCell id="c99tLSHFBEvujxyDnCjj-26" value="&lt;b&gt;Design Authority&lt;br&gt;&lt;/b&gt;" style="rounded=1;whiteSpace=wrap;html=1;verticalAlign=top;strokeWidth=1;strokeColor=#020912;dashed=1;fontSize=32;" parent="1" vertex="1">
          <mxGeometry x="740" y="10" width="310" height="750" as="geometry" />
        </mxCell>
        <mxCell id="ARf_2Hbt-9Ad1JEPtJ1I-11" value="&lt;b&gt;&lt;br&gt;&lt;/b&gt;" style="rounded=1;whiteSpace=wrap;html=1;verticalAlign=top;strokeWidth=1;strokeColor=#020912;dashed=1;fontSize=32;" parent="1" vertex="1">
          <mxGeometry x="780" y="100" width="230" height="219" as="geometry" />
        </mxCell>
        <mxCell id="c99tLSHFBEvujxyDnCjj-24" value="&lt;b&gt;Scrum Teams&lt;/b&gt;" style="rounded=1;whiteSpace=wrap;html=1;verticalAlign=top;strokeWidth=1;strokeColor=#020912;dashed=1;fontSize=32;" parent="1" vertex="1">
          <mxGeometry y="10" width="340" height="750" as="geometry" />
        </mxCell>
        <mxCell id="c99tLSHFBEvujxyDnCjj-37" value="" style="ellipse;shape=cloud;whiteSpace=wrap;html=1;" parent="1" vertex="1">
          <mxGeometry x="40" y="521" width="220" height="139" as="geometry" />
        </mxCell>
        <mxCell id="c99tLSHFBEvujxyDnCjj-33" value="" style="ellipse;shape=cloud;whiteSpace=wrap;html=1;" parent="1" vertex="1">
          <mxGeometry x="-420" y="80" width="350" height="280" as="geometry" />
        </mxCell>
        <mxCell id="c99tLSHFBEvujxyDnCjj-20" value="" style="ellipse;shape=cloud;whiteSpace=wrap;html=1;" parent="1" vertex="1">
          <mxGeometry x="-10" y="60" width="330" height="310" as="geometry" />
        </mxCell>
        <mxCell id="c99tLSHFBEvujxyDnCjj-5" value="P2P" style="shape=image;html=1;verticalAlign=top;verticalLabelPosition=bottom;labelBackgroundColor=#ffffff;imageAspect=0;aspect=fixed;image=https://cdn4.iconfinder.com/data/icons/business-660/512/17_team_group_meeting_business-128.png" parent="1" vertex="1">
          <mxGeometry x="90" y="110" width="68" height="68" as="geometry" />
        </mxCell>
        <mxCell id="c99tLSHFBEvujxyDnCjj-7" value="MDM" style="shape=image;html=1;verticalAlign=top;verticalLabelPosition=bottom;labelBackgroundColor=#ffffff;imageAspect=0;aspect=fixed;image=https://cdn4.iconfinder.com/data/icons/business-660/512/17_team_group_meeting_business-128.png" parent="1" vertex="1">
          <mxGeometry x="160" y="137" width="68" height="68" as="geometry" />
        </mxCell>
        <mxCell id="c99tLSHFBEvujxyDnCjj-8" value="O2C" style="shape=image;html=1;verticalAlign=top;verticalLabelPosition=bottom;labelBackgroundColor=#ffffff;imageAspect=0;aspect=fixed;image=https://cdn4.iconfinder.com/data/icons/business-660/512/17_team_group_meeting_business-128.png" parent="1" vertex="1">
          <mxGeometry x="136" y="239" width="68" height="68" as="geometry" />
        </mxCell>
        <mxCell id="c99tLSHFBEvujxyDnCjj-9" value="" style="shape=image;html=1;verticalAlign=top;verticalLabelPosition=bottom;labelBackgroundColor=#ffffff;imageAspect=0;aspect=fixed;image=https://cdn2.iconfinder.com/data/icons/entrepreneur-solid-high-risk-high-return/512/Teamwork-128.png" parent="1" vertex="1">
          <mxGeometry x="472" y="132" width="128" height="128" as="geometry" />
        </mxCell>
        <mxCell id="c99tLSHFBEvujxyDnCjj-12" value="Present" style="shape=flexArrow;endArrow=classic;html=1;fontSize=21;" parent="1" edge="1">
          <mxGeometry width="50" height="50" relative="1" as="geometry">
            <mxPoint x="300" y="228.5" as="sourcePoint" />
            <mxPoint x="460" y="228.5" as="targetPoint" />
          </mxGeometry>
        </mxCell>
        <mxCell id="c99tLSHFBEvujxyDnCjj-14" value="" style="shape=image;html=1;verticalAlign=top;verticalLabelPosition=bottom;labelBackgroundColor=#ffffff;imageAspect=0;aspect=fixed;image=https://cdn4.iconfinder.com/data/icons/business-660/512/12_meeting_business_office_team-128.png" parent="1" vertex="1">
          <mxGeometry x="800" y="400" width="190" height="190" as="geometry" />
        </mxCell>
        <mxCell id="c99tLSHFBEvujxyDnCjj-15" value="Recommend" style="shape=flexArrow;endArrow=classic;html=1;fontSize=21;" parent="1" edge="1">
          <mxGeometry width="50" height="50" relative="1" as="geometry">
            <mxPoint x="610" y="229.5" as="sourcePoint" />
            <mxPoint x="770" y="229.5" as="targetPoint" />
          </mxGeometry>
        </mxCell>
        <mxCell id="c99tLSHFBEvujxyDnCjj-21" value="R2R" style="shape=image;html=1;verticalAlign=top;verticalLabelPosition=bottom;labelBackgroundColor=#ffffff;imageAspect=0;aspect=fixed;image=https://cdn4.iconfinder.com/data/icons/business-660/512/17_team_group_meeting_business-128.png" parent="1" vertex="1">
          <mxGeometry x="50" y="192" width="68" height="68" as="geometry" />
        </mxCell>
        <mxCell id="c99tLSHFBEvujxyDnCjj-28" value="- Gaps&lt;br style=&quot;font-size: 15px&quot;&gt;- Modifications&lt;br style=&quot;font-size: 15px&quot;&gt;- Cross-functional issues&lt;br&gt;-Cross-system Issues" style="text;html=1;strokeColor=none;fillColor=none;align=center;verticalAlign=middle;whiteSpace=wrap;rounded=0;fontSize=15;" parent="1" vertex="1">
          <mxGeometry x="70" y="567" width="160" height="35" as="geometry" />
        </mxCell>
        <mxCell id="c99tLSHFBEvujxyDnCjj-29" value="" style="shape=flexArrow;endArrow=classic;html=1;" parent="1" edge="1">
          <mxGeometry width="50" height="50" relative="1" as="geometry">
            <mxPoint x="-80" y="232.5" as="sourcePoint" />
            <mxPoint x="30" y="232" as="targetPoint" />
          </mxGeometry>
        </mxCell>
        <mxCell id="c99tLSHFBEvujxyDnCjj-30" value="Requirements" style="text;html=1;strokeColor=none;fillColor=none;align=center;verticalAlign=middle;whiteSpace=wrap;rounded=0;fontSize=19;" parent="1" vertex="1">
          <mxGeometry x="-290" y="172" width="40" height="20" as="geometry" />
        </mxCell>
        <mxCell id="c99tLSHFBEvujxyDnCjj-34" value="Opportunities" style="text;html=1;align=center;verticalAlign=middle;resizable=0;points=[];autosize=1;fontSize=19;" parent="1" vertex="1">
          <mxGeometry x="-240" y="258" width="130" height="30" as="geometry" />
        </mxCell>
        <mxCell id="c99tLSHFBEvujxyDnCjj-35" value="User Stories" style="text;html=1;align=center;verticalAlign=middle;resizable=0;points=[];autosize=1;fontSize=19;" parent="1" vertex="1">
          <mxGeometry x="-360" y="235" width="120" height="30" as="geometry" />
        </mxCell>
        <mxCell id="c99tLSHFBEvujxyDnCjj-36" value="External factors" style="text;html=1;align=center;verticalAlign=middle;resizable=0;points=[];autosize=1;fontSize=19;" parent="1" vertex="1">
          <mxGeometry x="-265" y="205" width="150" height="30" as="geometry" />
        </mxCell>
        <mxCell id="c99tLSHFBEvujxyDnCjj-40" value="Identify" style="shape=flexArrow;endArrow=classic;html=1;fontSize=18;" parent="1" edge="1">
          <mxGeometry width="50" height="50" relative="1" as="geometry">
            <mxPoint x="106" y="346" as="sourcePoint" />
            <mxPoint x="106" y="520" as="targetPoint" />
          </mxGeometry>
        </mxCell>
        <mxCell id="c99tLSHFBEvujxyDnCjj-44" value="Document" style="shape=flexArrow;endArrow=classic;html=1;fontSize=14;" parent="1" edge="1">
          <mxGeometry width="50" height="50" relative="1" as="geometry">
            <mxPoint x="190" y="520" as="sourcePoint" />
            <mxPoint x="190" y="450" as="targetPoint" />
          </mxGeometry>
        </mxCell>
        <mxCell id="c99tLSHFBEvujxyDnCjj-50" value="&lt;b&gt;Draft KDD&lt;/b&gt;" style="pointerEvents=1;shadow=0;dashed=0;html=1;strokeColor=none;fillColor=#505050;labelPosition=center;verticalLabelPosition=bottom;verticalAlign=top;outlineConnect=0;align=center;shape=mxgraph.office.concepts.document;" parent="1" vertex="1">
          <mxGeometry x="160" y="360" width="60" height="60" as="geometry" />
        </mxCell>
        <mxCell id="c99tLSHFBEvujxyDnCjj-51" value="Refine" style="shape=flexArrow;endArrow=classic;html=1;fontSize=17;" parent="1" edge="1">
          <mxGeometry width="50" height="50" relative="1" as="geometry">
            <mxPoint x="512" y="270" as="sourcePoint" />
            <mxPoint x="512" y="360" as="targetPoint" />
          </mxGeometry>
        </mxCell>
        <mxCell id="c99tLSHFBEvujxyDnCjj-54" value="Document" style="shape=flexArrow;endArrow=classic;html=1;fontSize=14;" parent="1" edge="1">
          <mxGeometry x="-0.3333" y="-13" width="50" height="50" relative="1" as="geometry">
            <mxPoint x="562" y="360" as="sourcePoint" />
            <mxPoint x="562" y="270" as="targetPoint" />
            <Array as="points">
              <mxPoint x="562" y="330" />
            </Array>
            <mxPoint x="-5" y="10" as="offset" />
          </mxGeometry>
        </mxCell>
        <mxCell id="ARf_2Hbt-9Ad1JEPtJ1I-3" value="- Background&lt;br style=&quot;font-size: 14px;&quot;&gt;-Recommendation/Options&lt;br style=&quot;font-size: 14px;&quot;&gt;-Critical Considerations&lt;br style=&quot;font-size: 14px;&quot;&gt;- Limitations" style="text;html=1;strokeColor=none;fillColor=none;align=center;verticalAlign=middle;whiteSpace=wrap;rounded=0;fontSize=14;" parent="1" vertex="1">
          <mxGeometry x="200" y="360" width="190" height="20" as="geometry" />
        </mxCell>
        <mxCell id="ARf_2Hbt-9Ad1JEPtJ1I-4" value="&lt;b style=&quot;font-size: 22px;&quot;&gt;KDD&lt;/b&gt;" style="pointerEvents=1;shadow=0;dashed=0;html=1;strokeColor=none;fillColor=#505050;labelPosition=center;verticalLabelPosition=bottom;verticalAlign=top;outlineConnect=0;align=center;shape=mxgraph.office.concepts.document;fontSize=22;" parent="1" vertex="1">
          <mxGeometry x="472" y="380" width="116" height="110" as="geometry" />
        </mxCell>
        <mxCell id="ARf_2Hbt-9Ad1JEPtJ1I-7" value="Product/Process&lt;br style=&quot;font-size: 15px;&quot;&gt;&amp;nbsp;Owner" style="shape=image;html=1;verticalAlign=top;verticalLabelPosition=bottom;labelBackgroundColor=#ffffff;imageAspect=0;aspect=fixed;image=https://cdn2.iconfinder.com/data/icons/people-80/96/Picture22-128.png;align=left;fontSize=15;" parent="1" vertex="1">
          <mxGeometry x="792" y="195" width="68" height="68" as="geometry" />
        </mxCell>
        <mxCell id="ARf_2Hbt-9Ad1JEPtJ1I-8" value="Lead&lt;br style=&quot;font-size: 15px;&quot;&gt;Architect" style="shape=image;html=1;verticalAlign=top;verticalLabelPosition=bottom;labelBackgroundColor=#ffffff;imageAspect=0;aspect=fixed;image=https://cdn2.iconfinder.com/data/icons/people-80/96/Picture22-128.png;align=left;fontSize=15;" parent="1" vertex="1">
          <mxGeometry x="930" y="197" width="68" height="68" as="geometry" />
        </mxCell>
        <mxCell id="ARf_2Hbt-9Ad1JEPtJ1I-9" value="&lt;b&gt;KDD&lt;/b&gt;" style="pointerEvents=1;shadow=0;dashed=0;html=1;strokeColor=none;fillColor=#505050;labelPosition=center;verticalLabelPosition=bottom;verticalAlign=top;outlineConnect=0;align=center;shape=mxgraph.office.concepts.document;" parent="1" vertex="1">
          <mxGeometry x="810" y="110" width="60" height="60" as="geometry" />
        </mxCell>
        <mxCell id="ARf_2Hbt-9Ad1JEPtJ1I-12" value="Present" style="shape=flexArrow;endArrow=classic;html=1;fontSize=17;" parent="1" edge="1">
          <mxGeometry width="50" height="50" relative="1" as="geometry">
            <mxPoint x="840" y="323" as="sourcePoint" />
            <mxPoint x="840" y="400" as="targetPoint" />
          </mxGeometry>
        </mxCell>
        <mxCell id="ARf_2Hbt-9Ad1JEPtJ1I-13" value="Feedback/&lt;br&gt;Approval" style="shape=flexArrow;endArrow=classic;html=1;entryX=0.75;entryY=1;entryDx=0;entryDy=0;fontSize=14;" parent="1" target="ARf_2Hbt-9Ad1JEPtJ1I-11" edge="1">
          <mxGeometry width="50" height="50" relative="1" as="geometry">
            <mxPoint x="953" y="397" as="sourcePoint" />
            <mxPoint x="850" y="410" as="targetPoint" />
          </mxGeometry>
        </mxCell>
        <mxCell id="0OhkkFMMhTjVs_0uCOOg-1" value="Enterprise&lt;br&gt;&amp;nbsp;Architect" style="shape=image;html=1;verticalAlign=top;verticalLabelPosition=bottom;labelBackgroundColor=#ffffff;imageAspect=0;aspect=fixed;image=https://cdn2.iconfinder.com/data/icons/people-80/96/Picture22-128.png;align=left;fontSize=15;" parent="1" vertex="1">
          <mxGeometry x="882" y="106" width="68" height="68" as="geometry" />
        </mxCell>
        <mxCell id="0OhkkFMMhTjVs_0uCOOg-2" value="- Nobia Enterprise Architect/IBM Lead Architect&amp;nbsp;&lt;br&gt;-Noibia/IBM Solution Architects&amp;nbsp;&lt;br&gt;-Nobia/IBM Infrastructure Architect&lt;br&gt;- CISO &lt;br&gt;- Head of MDM&lt;br&gt;- Head of Digital Platforms&amp;nbsp;&lt;br&gt;- Process Owners&amp;nbsp;&lt;br&gt;-" style="rounded=1;whiteSpace=wrap;html=1;fontSize=14;align=left;" parent="1" vertex="1">
          <mxGeometry x="405" y="580" width="250" height="150" as="geometry" />
        </mxCell>
        <mxCell id="0OhkkFMMhTjVs_0uCOOg-3" value="Who?" style="text;html=1;align=center;verticalAlign=middle;resizable=0;points=[];autosize=1;fontSize=24;fontStyle=1" parent="1" vertex="1">
          <mxGeometry x="414" y="540" width="80" height="30" as="geometry" />
        </mxCell>
        <mxCell id="0OhkkFMMhTjVs_0uCOOg-4" value="Polaris Program Manager &amp;amp; TBC" style="rounded=1;whiteSpace=wrap;html=1;fontSize=14;align=left;" parent="1" vertex="1">
          <mxGeometry x="770" y="680" width="250" height="50" as="geometry" />
        </mxCell>
        <mxCell id="0OhkkFMMhTjVs_0uCOOg-5" value="Who?" style="text;html=1;align=center;verticalAlign=middle;resizable=0;points=[];autosize=1;fontSize=24;fontStyle=1" parent="1" vertex="1">
          <mxGeometry x="770" y="620" width="80" height="30" as="geometry" />
        </mxCell>
        <mxCell id="2ho4rguoaOLLhC2lMvx1-2" value="MTD" style="shape=image;html=1;verticalAlign=top;verticalLabelPosition=bottom;labelBackgroundColor=#ffffff;imageAspect=0;aspect=fixed;image=https://cdn4.iconfinder.com/data/icons/business-660/512/17_team_group_meeting_business-128.png" vertex="1" parent="1">
          <mxGeometry x="210" y="216" width="68" height="68" as="geometry" />
        </mxCell>
      </root>
    </mxGraphModel>
  </diagram>
  <diagram name="DA" id="npPlVVGVC8gvojWzI7Bi">
    <mxGraphModel dx="1662" dy="774" grid="1" gridSize="10" guides="1" tooltips="1" connect="1" arrows="1" fold="1" page="1" pageScale="1" pageWidth="827" pageHeight="1169" math="0" shadow="0">
      <root>
        <mxCell id="90E6TClhRa6mLpljwidf-0" />
        <mxCell id="90E6TClhRa6mLpljwidf-1" parent="90E6TClhRa6mLpljwidf-0" />
        <mxCell id="90E6TClhRa6mLpljwidf-2" value="&lt;b&gt;Design Authority&lt;br&gt;&lt;/b&gt;" style="rounded=1;whiteSpace=wrap;html=1;verticalAlign=top;strokeWidth=1;strokeColor=#020912;dashed=1;fontSize=32;" parent="90E6TClhRa6mLpljwidf-1" vertex="1">
          <mxGeometry x="740" y="10" width="310" height="870" as="geometry" />
        </mxCell>
        <mxCell id="90E6TClhRa6mLpljwidf-3" value="&lt;b&gt;&lt;br&gt;&lt;/b&gt;" style="rounded=1;whiteSpace=wrap;html=1;verticalAlign=top;strokeWidth=1;strokeColor=#020912;dashed=1;fontSize=32;" parent="90E6TClhRa6mLpljwidf-1" vertex="1">
          <mxGeometry x="780" y="100" width="230" height="219" as="geometry" />
        </mxCell>
        <mxCell id="90E6TClhRa6mLpljwidf-7" value="&lt;b&gt;Architecture&lt;br&gt;Forum&lt;br&gt;&lt;/b&gt;" style="rounded=1;whiteSpace=wrap;html=1;verticalAlign=top;strokeWidth=1;strokeColor=#020912;dashed=1;fontSize=32;" parent="90E6TClhRa6mLpljwidf-1" vertex="1">
          <mxGeometry x="400" y="10" width="270" height="300" as="geometry" />
        </mxCell>
        <mxCell id="90E6TClhRa6mLpljwidf-12" value="" style="shape=image;html=1;verticalAlign=top;verticalLabelPosition=bottom;labelBackgroundColor=#ffffff;imageAspect=0;aspect=fixed;image=https://cdn2.iconfinder.com/data/icons/entrepreneur-solid-high-risk-high-return/512/Teamwork-128.png" parent="90E6TClhRa6mLpljwidf-1" vertex="1">
          <mxGeometry x="472" y="132" width="128" height="128" as="geometry" />
        </mxCell>
        <mxCell id="90E6TClhRa6mLpljwidf-14" value="" style="shape=image;html=1;verticalAlign=top;verticalLabelPosition=bottom;labelBackgroundColor=#ffffff;imageAspect=0;aspect=fixed;image=https://cdn4.iconfinder.com/data/icons/business-660/512/12_meeting_business_office_team-128.png" parent="90E6TClhRa6mLpljwidf-1" vertex="1">
          <mxGeometry x="800" y="400" width="190" height="190" as="geometry" />
        </mxCell>
        <mxCell id="90E6TClhRa6mLpljwidf-15" value="Recommend" style="shape=flexArrow;endArrow=classic;html=1;fontSize=21;" parent="90E6TClhRa6mLpljwidf-1" edge="1">
          <mxGeometry width="50" height="50" relative="1" as="geometry">
            <mxPoint x="610" y="229.5" as="sourcePoint" />
            <mxPoint x="770" y="229.5" as="targetPoint" />
          </mxGeometry>
        </mxCell>
        <mxCell id="90E6TClhRa6mLpljwidf-30" value="Product/Process&lt;br style=&quot;font-size: 15px;&quot;&gt;&amp;nbsp;Owner" style="shape=image;html=1;verticalAlign=top;verticalLabelPosition=bottom;labelBackgroundColor=#ffffff;imageAspect=0;aspect=fixed;image=https://cdn2.iconfinder.com/data/icons/people-80/96/Picture22-128.png;align=left;fontSize=15;" parent="90E6TClhRa6mLpljwidf-1" vertex="1">
          <mxGeometry x="792" y="195" width="68" height="68" as="geometry" />
        </mxCell>
        <mxCell id="90E6TClhRa6mLpljwidf-31" value="Lead&lt;br style=&quot;font-size: 15px;&quot;&gt;Architect" style="shape=image;html=1;verticalAlign=top;verticalLabelPosition=bottom;labelBackgroundColor=#ffffff;imageAspect=0;aspect=fixed;image=https://cdn2.iconfinder.com/data/icons/people-80/96/Picture22-128.png;align=left;fontSize=15;" parent="90E6TClhRa6mLpljwidf-1" vertex="1">
          <mxGeometry x="930" y="197" width="68" height="68" as="geometry" />
        </mxCell>
        <mxCell id="90E6TClhRa6mLpljwidf-32" value="&lt;b&gt;KDD&lt;/b&gt;" style="pointerEvents=1;shadow=0;dashed=0;html=1;strokeColor=none;fillColor=#505050;labelPosition=center;verticalLabelPosition=bottom;verticalAlign=top;outlineConnect=0;align=center;shape=mxgraph.office.concepts.document;" parent="90E6TClhRa6mLpljwidf-1" vertex="1">
          <mxGeometry x="810" y="110" width="60" height="60" as="geometry" />
        </mxCell>
        <mxCell id="90E6TClhRa6mLpljwidf-33" value="Present" style="shape=flexArrow;endArrow=classic;html=1;fontSize=17;" parent="90E6TClhRa6mLpljwidf-1" edge="1">
          <mxGeometry width="50" height="50" relative="1" as="geometry">
            <mxPoint x="840" y="323" as="sourcePoint" />
            <mxPoint x="840" y="400" as="targetPoint" />
          </mxGeometry>
        </mxCell>
        <mxCell id="90E6TClhRa6mLpljwidf-34" value="Feedback/&lt;br&gt;Approval" style="shape=flexArrow;endArrow=classic;html=1;entryX=0.75;entryY=1;entryDx=0;entryDy=0;fontSize=14;" parent="90E6TClhRa6mLpljwidf-1" target="90E6TClhRa6mLpljwidf-3" edge="1">
          <mxGeometry width="50" height="50" relative="1" as="geometry">
            <mxPoint x="953" y="397" as="sourcePoint" />
            <mxPoint x="850" y="410" as="targetPoint" />
          </mxGeometry>
        </mxCell>
        <mxCell id="90E6TClhRa6mLpljwidf-35" value="Enterprise&lt;br&gt;&amp;nbsp;Architect" style="shape=image;html=1;verticalAlign=top;verticalLabelPosition=bottom;labelBackgroundColor=#ffffff;imageAspect=0;aspect=fixed;image=https://cdn2.iconfinder.com/data/icons/people-80/96/Picture22-128.png;align=left;fontSize=15;" parent="90E6TClhRa6mLpljwidf-1" vertex="1">
          <mxGeometry x="882" y="106" width="68" height="68" as="geometry" />
        </mxCell>
        <mxCell id="90E6TClhRa6mLpljwidf-38" value="- CIO&lt;br&gt;- CISO&amp;nbsp;&lt;br&gt;- Head of Infrastructure&lt;br&gt;- Polaris Program Manager&lt;br&gt;- Heads of Regional IT&lt;br&gt;- Systems Integrator&lt;br&gt;- Head of Master Data&lt;br&gt;- Head of BI&lt;br&gt;- Product Owners" style="rounded=1;whiteSpace=wrap;html=1;fontSize=14;align=left;" parent="90E6TClhRa6mLpljwidf-1" vertex="1">
          <mxGeometry x="770" y="680" width="250" height="170" as="geometry" />
        </mxCell>
        <mxCell id="90E6TClhRa6mLpljwidf-39" value="Who?" style="text;html=1;align=center;verticalAlign=middle;resizable=0;points=[];autosize=1;fontSize=24;fontStyle=1" parent="90E6TClhRa6mLpljwidf-1" vertex="1">
          <mxGeometry x="770" y="620" width="80" height="30" as="geometry" />
        </mxCell>
      </root>
    </mxGraphModel>
  </diagram>
  <diagram name="Architecture Forum" id="BOitVH5EG3pJBqvGLq6d">
    <mxGraphModel dx="2249" dy="774" grid="1" gridSize="10" guides="1" tooltips="1" connect="1" arrows="1" fold="1" page="1" pageScale="1" pageWidth="827" pageHeight="1169" math="0" shadow="0">
      <root>
        <mxCell id="QH_epvFOXvMfQ3F0n1xM-0" />
        <mxCell id="QH_epvFOXvMfQ3F0n1xM-1" parent="QH_epvFOXvMfQ3F0n1xM-0" />
        <mxCell id="QH_epvFOXvMfQ3F0n1xM-4" value="&lt;b&gt;Product Teams&lt;/b&gt;" style="rounded=1;whiteSpace=wrap;html=1;verticalAlign=top;strokeWidth=1;strokeColor=#020912;dashed=1;fontSize=32;" vertex="1" parent="QH_epvFOXvMfQ3F0n1xM-1">
          <mxGeometry y="10" width="340" height="400" as="geometry" />
        </mxCell>
        <mxCell id="QH_epvFOXvMfQ3F0n1xM-7" value="&lt;b&gt;Architecture&lt;br&gt;Forum&lt;br&gt;&lt;/b&gt;" style="rounded=1;whiteSpace=wrap;html=1;verticalAlign=top;strokeWidth=1;strokeColor=#020912;dashed=1;fontSize=32;" vertex="1" parent="QH_epvFOXvMfQ3F0n1xM-1">
          <mxGeometry x="400" y="10" width="270" height="790" as="geometry" />
        </mxCell>
        <mxCell id="QH_epvFOXvMfQ3F0n1xM-8" value="" style="ellipse;shape=cloud;whiteSpace=wrap;html=1;" vertex="1" parent="QH_epvFOXvMfQ3F0n1xM-1">
          <mxGeometry x="-10" y="60" width="330" height="310" as="geometry" />
        </mxCell>
        <mxCell id="QH_epvFOXvMfQ3F0n1xM-9" value="P2P" style="shape=image;html=1;verticalAlign=top;verticalLabelPosition=bottom;labelBackgroundColor=#ffffff;imageAspect=0;aspect=fixed;image=https://cdn4.iconfinder.com/data/icons/business-660/512/17_team_group_meeting_business-128.png" vertex="1" parent="QH_epvFOXvMfQ3F0n1xM-1">
          <mxGeometry x="90" y="110" width="68" height="68" as="geometry" />
        </mxCell>
        <mxCell id="QH_epvFOXvMfQ3F0n1xM-10" value="MDM" style="shape=image;html=1;verticalAlign=top;verticalLabelPosition=bottom;labelBackgroundColor=#ffffff;imageAspect=0;aspect=fixed;image=https://cdn4.iconfinder.com/data/icons/business-660/512/17_team_group_meeting_business-128.png" vertex="1" parent="QH_epvFOXvMfQ3F0n1xM-1">
          <mxGeometry x="190" y="149" width="68" height="68" as="geometry" />
        </mxCell>
        <mxCell id="QH_epvFOXvMfQ3F0n1xM-11" value="O2C" style="shape=image;html=1;verticalAlign=top;verticalLabelPosition=bottom;labelBackgroundColor=#ffffff;imageAspect=0;aspect=fixed;image=https://cdn4.iconfinder.com/data/icons/business-660/512/17_team_group_meeting_business-128.png" vertex="1" parent="QH_epvFOXvMfQ3F0n1xM-1">
          <mxGeometry x="136" y="239" width="68" height="68" as="geometry" />
        </mxCell>
        <mxCell id="QH_epvFOXvMfQ3F0n1xM-12" value="" style="shape=image;html=1;verticalAlign=top;verticalLabelPosition=bottom;labelBackgroundColor=#ffffff;imageAspect=0;aspect=fixed;image=https://cdn2.iconfinder.com/data/icons/entrepreneur-solid-high-risk-high-return/512/Teamwork-128.png" vertex="1" parent="QH_epvFOXvMfQ3F0n1xM-1">
          <mxGeometry x="472" y="132" width="128" height="128" as="geometry" />
        </mxCell>
        <mxCell id="QH_epvFOXvMfQ3F0n1xM-13" value="Present" style="shape=flexArrow;endArrow=classic;html=1;fontSize=21;" edge="1" parent="QH_epvFOXvMfQ3F0n1xM-1">
          <mxGeometry width="50" height="50" relative="1" as="geometry">
            <mxPoint x="300" y="228.5" as="sourcePoint" />
            <mxPoint x="460" y="228.5" as="targetPoint" />
          </mxGeometry>
        </mxCell>
        <mxCell id="QH_epvFOXvMfQ3F0n1xM-16" value="R2R" style="shape=image;html=1;verticalAlign=top;verticalLabelPosition=bottom;labelBackgroundColor=#ffffff;imageAspect=0;aspect=fixed;image=https://cdn4.iconfinder.com/data/icons/business-660/512/17_team_group_meeting_business-128.png" vertex="1" parent="QH_epvFOXvMfQ3F0n1xM-1">
          <mxGeometry x="50" y="192" width="68" height="68" as="geometry" />
        </mxCell>
        <mxCell id="QH_epvFOXvMfQ3F0n1xM-25" value="&lt;b&gt;Draft KDD&lt;/b&gt;" style="pointerEvents=1;shadow=0;dashed=0;html=1;strokeColor=none;fillColor=#505050;labelPosition=center;verticalLabelPosition=bottom;verticalAlign=top;outlineConnect=0;align=center;shape=mxgraph.office.concepts.document;" vertex="1" parent="QH_epvFOXvMfQ3F0n1xM-1">
          <mxGeometry x="300" y="137" width="60" height="60" as="geometry" />
        </mxCell>
        <mxCell id="QH_epvFOXvMfQ3F0n1xM-26" value="Refine" style="shape=flexArrow;endArrow=classic;html=1;fontSize=17;" edge="1" parent="QH_epvFOXvMfQ3F0n1xM-1">
          <mxGeometry width="50" height="50" relative="1" as="geometry">
            <mxPoint x="512" y="270" as="sourcePoint" />
            <mxPoint x="512" y="360" as="targetPoint" />
          </mxGeometry>
        </mxCell>
        <mxCell id="QH_epvFOXvMfQ3F0n1xM-27" value="Document" style="shape=flexArrow;endArrow=classic;html=1;fontSize=14;" edge="1" parent="QH_epvFOXvMfQ3F0n1xM-1">
          <mxGeometry x="-0.3333" y="-13" width="50" height="50" relative="1" as="geometry">
            <mxPoint x="562" y="360" as="sourcePoint" />
            <mxPoint x="562" y="270" as="targetPoint" />
            <Array as="points">
              <mxPoint x="562" y="330" />
            </Array>
            <mxPoint x="-5" y="10" as="offset" />
          </mxGeometry>
        </mxCell>
        <mxCell id="QH_epvFOXvMfQ3F0n1xM-29" value="&lt;b style=&quot;font-size: 22px;&quot;&gt;KDD&lt;/b&gt;" style="pointerEvents=1;shadow=0;dashed=0;html=1;strokeColor=none;fillColor=#505050;labelPosition=center;verticalLabelPosition=bottom;verticalAlign=top;outlineConnect=0;align=center;shape=mxgraph.office.concepts.document;fontSize=22;" vertex="1" parent="QH_epvFOXvMfQ3F0n1xM-1">
          <mxGeometry x="472" y="380" width="116" height="110" as="geometry" />
        </mxCell>
        <mxCell id="QH_epvFOXvMfQ3F0n1xM-36" value="- Nobia Enterprise Architect (Mandatory)&lt;br&gt;-Noibia Solution Architects (Optional)&lt;br&gt;-Nobia Infrastructure Architect (Optional)&lt;br&gt;- CISO (at request)&lt;br&gt;- Head of MDM (at request)&lt;br&gt;- Head of Digital Platforms (at request)&lt;br&gt;-Product/Process Owners (at request)&lt;br&gt;-Systems Integrator - Lead Architect (at request)" style="rounded=1;whiteSpace=wrap;html=1;fontSize=14;align=left;" vertex="1" parent="QH_epvFOXvMfQ3F0n1xM-1">
          <mxGeometry x="410" y="570" width="250" height="200" as="geometry" />
        </mxCell>
        <mxCell id="QH_epvFOXvMfQ3F0n1xM-37" value="Who?" style="text;html=1;align=center;verticalAlign=middle;resizable=0;points=[];autosize=1;fontSize=24;fontStyle=1" vertex="1" parent="QH_epvFOXvMfQ3F0n1xM-1">
          <mxGeometry x="414" y="530" width="80" height="30" as="geometry" />
        </mxCell>
      </root>
    </mxGraphModel>
  </diagram>
  <diagram name="Product Teams" id="099WtRSie5R1-pHzUrGq">
    <mxGraphModel dx="2489" dy="774" grid="1" gridSize="10" guides="1" tooltips="1" connect="1" arrows="1" fold="1" page="1" pageScale="1" pageWidth="827" pageHeight="1169" math="0" shadow="0">
      <root>
        <mxCell id="w9mMeY8VKFgYGcu_L2-A-0" />
        <mxCell id="w9mMeY8VKFgYGcu_L2-A-1" parent="w9mMeY8VKFgYGcu_L2-A-0" />
        <mxCell id="w9mMeY8VKFgYGcu_L2-A-4" value="&lt;b&gt;Product Teams&lt;/b&gt;" style="rounded=1;whiteSpace=wrap;html=1;verticalAlign=top;strokeWidth=1;strokeColor=#020912;dashed=1;fontSize=32;" vertex="1" parent="w9mMeY8VKFgYGcu_L2-A-1">
          <mxGeometry y="10" width="340" height="670" as="geometry" />
        </mxCell>
        <mxCell id="w9mMeY8VKFgYGcu_L2-A-8" value="" style="ellipse;shape=cloud;whiteSpace=wrap;html=1;" vertex="1" parent="w9mMeY8VKFgYGcu_L2-A-1">
          <mxGeometry x="-10" y="60" width="330" height="310" as="geometry" />
        </mxCell>
        <mxCell id="w9mMeY8VKFgYGcu_L2-A-9" value="P2P" style="shape=image;html=1;verticalAlign=top;verticalLabelPosition=bottom;labelBackgroundColor=#ffffff;imageAspect=0;aspect=fixed;image=https://cdn4.iconfinder.com/data/icons/business-660/512/17_team_group_meeting_business-128.png" vertex="1" parent="w9mMeY8VKFgYGcu_L2-A-1">
          <mxGeometry x="90" y="110" width="68" height="68" as="geometry" />
        </mxCell>
        <mxCell id="w9mMeY8VKFgYGcu_L2-A-10" value="MDM" style="shape=image;html=1;verticalAlign=top;verticalLabelPosition=bottom;labelBackgroundColor=#ffffff;imageAspect=0;aspect=fixed;image=https://cdn4.iconfinder.com/data/icons/business-660/512/17_team_group_meeting_business-128.png" vertex="1" parent="w9mMeY8VKFgYGcu_L2-A-1">
          <mxGeometry x="190" y="149" width="68" height="68" as="geometry" />
        </mxCell>
        <mxCell id="w9mMeY8VKFgYGcu_L2-A-11" value="O2C" style="shape=image;html=1;verticalAlign=top;verticalLabelPosition=bottom;labelBackgroundColor=#ffffff;imageAspect=0;aspect=fixed;image=https://cdn4.iconfinder.com/data/icons/business-660/512/17_team_group_meeting_business-128.png" vertex="1" parent="w9mMeY8VKFgYGcu_L2-A-1">
          <mxGeometry x="136" y="239" width="68" height="68" as="geometry" />
        </mxCell>
        <mxCell id="w9mMeY8VKFgYGcu_L2-A-16" value="R2R" style="shape=image;html=1;verticalAlign=top;verticalLabelPosition=bottom;labelBackgroundColor=#ffffff;imageAspect=0;aspect=fixed;image=https://cdn4.iconfinder.com/data/icons/business-660/512/17_team_group_meeting_business-128.png" vertex="1" parent="w9mMeY8VKFgYGcu_L2-A-1">
          <mxGeometry x="50" y="192" width="68" height="68" as="geometry" />
        </mxCell>
        <mxCell id="w9mMeY8VKFgYGcu_L2-A-17" value="- Gaps&lt;br style=&quot;font-size: 15px&quot;&gt;- Modifications&lt;br style=&quot;font-size: 15px&quot;&gt;- Cross-functional issues&lt;br&gt;-Cross-system Issues" style="text;html=1;strokeColor=none;fillColor=none;align=center;verticalAlign=middle;whiteSpace=wrap;rounded=0;fontSize=15;" vertex="1" parent="w9mMeY8VKFgYGcu_L2-A-1">
          <mxGeometry x="160" y="583" width="160" height="35" as="geometry" />
        </mxCell>
        <mxCell id="w9mMeY8VKFgYGcu_L2-A-23" value="Document" style="shape=flexArrow;endArrow=classic;html=1;fontSize=18;" edge="1" parent="w9mMeY8VKFgYGcu_L2-A-1">
          <mxGeometry width="50" height="50" relative="1" as="geometry">
            <mxPoint x="106" y="346" as="sourcePoint" />
            <mxPoint x="106" y="520" as="targetPoint" />
          </mxGeometry>
        </mxCell>
        <mxCell id="w9mMeY8VKFgYGcu_L2-A-24" value="Document" style="shape=flexArrow;endArrow=classic;html=1;fontSize=14;" edge="1" parent="w9mMeY8VKFgYGcu_L2-A-1">
          <mxGeometry width="50" height="50" relative="1" as="geometry">
            <mxPoint x="190" y="520" as="sourcePoint" />
            <mxPoint x="190" y="450" as="targetPoint" />
          </mxGeometry>
        </mxCell>
        <mxCell id="w9mMeY8VKFgYGcu_L2-A-25" value="&lt;b&gt;Draft KDD&lt;/b&gt;" style="pointerEvents=1;shadow=0;dashed=0;html=1;strokeColor=none;fillColor=#505050;labelPosition=center;verticalLabelPosition=bottom;verticalAlign=top;outlineConnect=0;align=center;shape=mxgraph.office.concepts.document;" vertex="1" parent="w9mMeY8VKFgYGcu_L2-A-1">
          <mxGeometry x="160" y="360" width="60" height="60" as="geometry" />
        </mxCell>
        <mxCell id="w9mMeY8VKFgYGcu_L2-A-28" value="- Background&lt;br style=&quot;font-size: 14px;&quot;&gt;-Recommendation/Options&lt;br style=&quot;font-size: 14px;&quot;&gt;-Critical Considerations&lt;br style=&quot;font-size: 14px;&quot;&gt;- Limitations" style="text;html=1;strokeColor=none;fillColor=none;align=center;verticalAlign=middle;whiteSpace=wrap;rounded=0;fontSize=14;" vertex="1" parent="w9mMeY8VKFgYGcu_L2-A-1">
          <mxGeometry x="200" y="360" width="200" height="20" as="geometry" />
        </mxCell>
        <mxCell id="w9mMeY8VKFgYGcu_L2-A-43" value="Decision Log" style="shape=datastore;whiteSpace=wrap;html=1;" vertex="1" parent="w9mMeY8VKFgYGcu_L2-A-1">
          <mxGeometry x="48" y="520" width="110" height="98" as="geometry" />
        </mxCell>
      </root>
    </mxGraphModel>
  </diagram>
  <diagram name="Process" id="Z_CHU5V8lkBAndkOCjb0">
    <mxGraphModel dx="2489" dy="774" grid="1" gridSize="10" guides="1" tooltips="1" connect="1" arrows="1" fold="1" page="1" pageScale="1" pageWidth="827" pageHeight="1169" math="0" shadow="0">
      <root>
        <mxCell id="rdhEyoai0Fe_zNciIaCp-0" />
        <mxCell id="rdhEyoai0Fe_zNciIaCp-1" parent="rdhEyoai0Fe_zNciIaCp-0" />
        <mxCell id="rdhEyoai0Fe_zNciIaCp-2" value="&lt;b&gt;Design Authority&lt;br&gt;&lt;/b&gt;" style="rounded=1;whiteSpace=wrap;html=1;verticalAlign=top;strokeWidth=1;strokeColor=#020912;dashed=1;fontSize=32;" vertex="1" parent="rdhEyoai0Fe_zNciIaCp-1">
          <mxGeometry x="740" y="10" width="310" height="380" as="geometry" />
        </mxCell>
        <mxCell id="rdhEyoai0Fe_zNciIaCp-4" value="&lt;b&gt;Product Teams&lt;/b&gt;" style="rounded=1;whiteSpace=wrap;html=1;verticalAlign=top;strokeWidth=1;strokeColor=#020912;dashed=1;fontSize=32;" vertex="1" parent="rdhEyoai0Fe_zNciIaCp-1">
          <mxGeometry x="-10" y="10" width="340" height="380" as="geometry" />
        </mxCell>
        <mxCell id="rdhEyoai0Fe_zNciIaCp-6" value="" style="ellipse;shape=cloud;whiteSpace=wrap;html=1;" vertex="1" parent="rdhEyoai0Fe_zNciIaCp-1">
          <mxGeometry x="-420" y="80" width="350" height="280" as="geometry" />
        </mxCell>
        <mxCell id="rdhEyoai0Fe_zNciIaCp-7" value="&lt;b&gt;Architecture&lt;br&gt;Forum&lt;br&gt;&lt;/b&gt;" style="rounded=1;whiteSpace=wrap;html=1;verticalAlign=top;strokeWidth=1;strokeColor=#020912;dashed=1;fontSize=32;" vertex="1" parent="rdhEyoai0Fe_zNciIaCp-1">
          <mxGeometry x="370" y="10" width="320" height="380" as="geometry" />
        </mxCell>
        <mxCell id="rdhEyoai0Fe_zNciIaCp-8" value="" style="ellipse;shape=cloud;whiteSpace=wrap;html=1;" vertex="1" parent="rdhEyoai0Fe_zNciIaCp-1">
          <mxGeometry x="-10" y="60" width="330" height="310" as="geometry" />
        </mxCell>
        <mxCell id="rdhEyoai0Fe_zNciIaCp-9" value="P2P" style="shape=image;html=1;verticalAlign=top;verticalLabelPosition=bottom;labelBackgroundColor=#ffffff;imageAspect=0;aspect=fixed;image=https://cdn4.iconfinder.com/data/icons/business-660/512/17_team_group_meeting_business-128.png" vertex="1" parent="rdhEyoai0Fe_zNciIaCp-1">
          <mxGeometry x="90" y="110" width="68" height="68" as="geometry" />
        </mxCell>
        <mxCell id="rdhEyoai0Fe_zNciIaCp-10" value="MDM" style="shape=image;html=1;verticalAlign=top;verticalLabelPosition=bottom;labelBackgroundColor=#ffffff;imageAspect=0;aspect=fixed;image=https://cdn4.iconfinder.com/data/icons/business-660/512/17_team_group_meeting_business-128.png" vertex="1" parent="rdhEyoai0Fe_zNciIaCp-1">
          <mxGeometry x="190" y="149" width="68" height="68" as="geometry" />
        </mxCell>
        <mxCell id="rdhEyoai0Fe_zNciIaCp-11" value="O2C" style="shape=image;html=1;verticalAlign=top;verticalLabelPosition=bottom;labelBackgroundColor=#ffffff;imageAspect=0;aspect=fixed;image=https://cdn4.iconfinder.com/data/icons/business-660/512/17_team_group_meeting_business-128.png" vertex="1" parent="rdhEyoai0Fe_zNciIaCp-1">
          <mxGeometry x="136" y="239" width="68" height="68" as="geometry" />
        </mxCell>
        <mxCell id="rdhEyoai0Fe_zNciIaCp-12" value="" style="shape=image;html=1;verticalAlign=top;verticalLabelPosition=bottom;labelBackgroundColor=#ffffff;imageAspect=0;aspect=fixed;image=https://cdn2.iconfinder.com/data/icons/entrepreneur-solid-high-risk-high-return/512/Teamwork-128.png" vertex="1" parent="rdhEyoai0Fe_zNciIaCp-1">
          <mxGeometry x="472" y="132" width="128" height="128" as="geometry" />
        </mxCell>
        <mxCell id="rdhEyoai0Fe_zNciIaCp-13" value="Present" style="shape=flexArrow;endArrow=classic;html=1;fontSize=21;" edge="1" parent="rdhEyoai0Fe_zNciIaCp-1">
          <mxGeometry width="50" height="50" relative="1" as="geometry">
            <mxPoint x="300" y="228.5" as="sourcePoint" />
            <mxPoint x="460" y="228.5" as="targetPoint" />
          </mxGeometry>
        </mxCell>
        <mxCell id="rdhEyoai0Fe_zNciIaCp-14" value="" style="shape=image;html=1;verticalAlign=top;verticalLabelPosition=bottom;labelBackgroundColor=#ffffff;imageAspect=0;aspect=fixed;image=https://cdn4.iconfinder.com/data/icons/business-660/512/12_meeting_business_office_team-128.png" vertex="1" parent="rdhEyoai0Fe_zNciIaCp-1">
          <mxGeometry x="800" y="120" width="190" height="190" as="geometry" />
        </mxCell>
        <mxCell id="rdhEyoai0Fe_zNciIaCp-15" value="Recommend" style="shape=flexArrow;endArrow=classic;html=1;fontSize=21;" edge="1" parent="rdhEyoai0Fe_zNciIaCp-1">
          <mxGeometry width="50" height="50" relative="1" as="geometry">
            <mxPoint x="610" y="229.5" as="sourcePoint" />
            <mxPoint x="770" y="229.5" as="targetPoint" />
          </mxGeometry>
        </mxCell>
        <mxCell id="rdhEyoai0Fe_zNciIaCp-16" value="R2R" style="shape=image;html=1;verticalAlign=top;verticalLabelPosition=bottom;labelBackgroundColor=#ffffff;imageAspect=0;aspect=fixed;image=https://cdn4.iconfinder.com/data/icons/business-660/512/17_team_group_meeting_business-128.png" vertex="1" parent="rdhEyoai0Fe_zNciIaCp-1">
          <mxGeometry x="50" y="192" width="68" height="68" as="geometry" />
        </mxCell>
        <mxCell id="rdhEyoai0Fe_zNciIaCp-18" value="" style="shape=flexArrow;endArrow=classic;html=1;" edge="1" parent="rdhEyoai0Fe_zNciIaCp-1">
          <mxGeometry width="50" height="50" relative="1" as="geometry">
            <mxPoint x="-80" y="232.5" as="sourcePoint" />
            <mxPoint x="30" y="232" as="targetPoint" />
          </mxGeometry>
        </mxCell>
        <mxCell id="rdhEyoai0Fe_zNciIaCp-19" value="Requirements" style="text;html=1;strokeColor=none;fillColor=none;align=center;verticalAlign=middle;whiteSpace=wrap;rounded=0;fontSize=19;" vertex="1" parent="rdhEyoai0Fe_zNciIaCp-1">
          <mxGeometry x="-290" y="172" width="40" height="20" as="geometry" />
        </mxCell>
        <mxCell id="rdhEyoai0Fe_zNciIaCp-20" value="Opportunities" style="text;html=1;align=center;verticalAlign=middle;resizable=0;points=[];autosize=1;fontSize=19;" vertex="1" parent="rdhEyoai0Fe_zNciIaCp-1">
          <mxGeometry x="-240" y="258" width="130" height="30" as="geometry" />
        </mxCell>
        <mxCell id="rdhEyoai0Fe_zNciIaCp-21" value="User Stories" style="text;html=1;align=center;verticalAlign=middle;resizable=0;points=[];autosize=1;fontSize=19;" vertex="1" parent="rdhEyoai0Fe_zNciIaCp-1">
          <mxGeometry x="-360" y="235" width="120" height="30" as="geometry" />
        </mxCell>
        <mxCell id="rdhEyoai0Fe_zNciIaCp-22" value="External factors" style="text;html=1;align=center;verticalAlign=middle;resizable=0;points=[];autosize=1;fontSize=19;" vertex="1" parent="rdhEyoai0Fe_zNciIaCp-1">
          <mxGeometry x="-265" y="205" width="150" height="30" as="geometry" />
        </mxCell>
      </root>
    </mxGraphModel>
  </diagram>
  <diagram id="JwXX_6g9EZMtV0hlzqTo" name="Product Team">
    <mxGraphModel dx="2489" dy="774" grid="1" gridSize="10" guides="1" tooltips="1" connect="1" arrows="1" fold="1" page="1" pageScale="1" pageWidth="827" pageHeight="1169" math="0" shadow="0">
      <root>
        <mxCell id="DqfIb0BlEA46qqVhE4fC-0" />
        <mxCell id="DqfIb0BlEA46qqVhE4fC-1" parent="DqfIb0BlEA46qqVhE4fC-0" />
        <mxCell id="-0pG8y2s44W47PomPfPJ-0" value="&lt;b&gt;Product Teams&lt;/b&gt;" style="rounded=1;whiteSpace=wrap;html=1;verticalAlign=top;strokeWidth=1;strokeColor=#020912;dashed=1;fontSize=32;" vertex="1" parent="DqfIb0BlEA46qqVhE4fC-1">
          <mxGeometry x="-11" y="10" width="391" height="400" as="geometry" />
        </mxCell>
        <mxCell id="-0pG8y2s44W47PomPfPJ-3" value="" style="ellipse;shape=cloud;whiteSpace=wrap;html=1;" vertex="1" parent="DqfIb0BlEA46qqVhE4fC-1">
          <mxGeometry x="-10" y="60" width="380" height="310" as="geometry" />
        </mxCell>
        <mxCell id="-0pG8y2s44W47PomPfPJ-4" value="P2P" style="shape=image;html=1;verticalAlign=top;verticalLabelPosition=bottom;labelBackgroundColor=#ffffff;imageAspect=0;aspect=fixed;image=https://cdn4.iconfinder.com/data/icons/business-660/512/17_team_group_meeting_business-128.png" vertex="1" parent="DqfIb0BlEA46qqVhE4fC-1">
          <mxGeometry x="130" y="120" width="68" height="68" as="geometry" />
        </mxCell>
        <mxCell id="-0pG8y2s44W47PomPfPJ-5" value="MDM" style="shape=image;html=1;verticalAlign=top;verticalLabelPosition=bottom;labelBackgroundColor=#ffffff;imageAspect=0;aspect=fixed;image=https://cdn4.iconfinder.com/data/icons/business-660/512/17_team_group_meeting_business-128.png" vertex="1" parent="DqfIb0BlEA46qqVhE4fC-1">
          <mxGeometry x="230" y="167" width="68" height="68" as="geometry" />
        </mxCell>
        <mxCell id="-0pG8y2s44W47PomPfPJ-6" value="O2C" style="shape=image;html=1;verticalAlign=top;verticalLabelPosition=bottom;labelBackgroundColor=#ffffff;imageAspect=0;aspect=fixed;image=https://cdn4.iconfinder.com/data/icons/business-660/512/17_team_group_meeting_business-128.png" vertex="1" parent="DqfIb0BlEA46qqVhE4fC-1">
          <mxGeometry x="136" y="239" width="68" height="68" as="geometry" />
        </mxCell>
        <mxCell id="-0pG8y2s44W47PomPfPJ-7" value="R2R" style="shape=image;html=1;verticalAlign=top;verticalLabelPosition=bottom;labelBackgroundColor=#ffffff;imageAspect=0;aspect=fixed;image=https://cdn4.iconfinder.com/data/icons/business-660/512/17_team_group_meeting_business-128.png" vertex="1" parent="DqfIb0BlEA46qqVhE4fC-1">
          <mxGeometry x="50" y="192" width="68" height="68" as="geometry" />
        </mxCell>
        <mxCell id="-0pG8y2s44W47PomPfPJ-9" value="" style="shape=flexArrow;endArrow=classic;html=1;entryX=0.07;entryY=0.4;entryDx=0;entryDy=0;entryPerimeter=0;endWidth=25;endSize=12.61;width=26;fillColor=#ffffff;" edge="1" parent="DqfIb0BlEA46qqVhE4fC-1" target="-0pG8y2s44W47PomPfPJ-3">
          <mxGeometry width="50" height="50" relative="1" as="geometry">
            <mxPoint x="-160" y="90" as="sourcePoint" />
            <mxPoint x="-50" y="70" as="targetPoint" />
          </mxGeometry>
        </mxCell>
        <mxCell id="-0pG8y2s44W47PomPfPJ-10" value="Shifting Requirements" style="text;html=1;strokeColor=none;fillColor=none;align=center;verticalAlign=middle;whiteSpace=wrap;rounded=0;fontSize=19;fontStyle=1" vertex="1" parent="DqfIb0BlEA46qqVhE4fC-1">
          <mxGeometry x="-210" y="50" width="40" height="20" as="geometry" />
        </mxCell>
        <mxCell id="-0pG8y2s44W47PomPfPJ-11" value="New Business Opportunities" style="text;html=1;align=center;verticalAlign=middle;resizable=0;points=[];autosize=1;fontSize=19;fontStyle=1" vertex="1" parent="DqfIb0BlEA46qqVhE4fC-1">
          <mxGeometry x="440" y="300" width="270" height="30" as="geometry" />
        </mxCell>
        <mxCell id="-0pG8y2s44W47PomPfPJ-12" value="Evolving User Stories" style="text;html=1;align=center;verticalAlign=middle;resizable=0;points=[];autosize=1;fontSize=19;fontStyle=1" vertex="1" parent="DqfIb0BlEA46qqVhE4fC-1">
          <mxGeometry x="475" y="70" width="210" height="30" as="geometry" />
        </mxCell>
        <mxCell id="-0pG8y2s44W47PomPfPJ-13" value="External factors" style="text;html=1;align=center;verticalAlign=middle;resizable=0;points=[];autosize=1;fontSize=19;fontStyle=1" vertex="1" parent="DqfIb0BlEA46qqVhE4fC-1">
          <mxGeometry x="-295" y="277" width="160" height="30" as="geometry" />
        </mxCell>
        <mxCell id="-0pG8y2s44W47PomPfPJ-19" value="" style="shape=flexArrow;endArrow=classic;html=1;entryX=0.07;entryY=0.4;entryDx=0;entryDy=0;entryPerimeter=0;width=28;endSize=17.33;fillColor=#ffffff;" edge="1" parent="DqfIb0BlEA46qqVhE4fC-1">
          <mxGeometry width="50" height="50" relative="1" as="geometry">
            <mxPoint x="-140" y="300" as="sourcePoint" />
            <mxPoint x="49.99999999999991" y="300" as="targetPoint" />
          </mxGeometry>
        </mxCell>
        <mxCell id="-0pG8y2s44W47PomPfPJ-21" value="" style="shape=flexArrow;endArrow=classic;html=1;entryX=0.834;entryY=0.203;entryDx=0;entryDy=0;entryPerimeter=0;width=26;endSize=11.87;fillColor=#ffffff;" edge="1" parent="DqfIb0BlEA46qqVhE4fC-1" source="-0pG8y2s44W47PomPfPJ-12" target="-0pG8y2s44W47PomPfPJ-3">
          <mxGeometry width="50" height="50" relative="1" as="geometry">
            <mxPoint x="-150" y="80.5" as="sourcePoint" />
            <mxPoint x="26.59999999999991" y="194" as="targetPoint" />
          </mxGeometry>
        </mxCell>
        <mxCell id="-0pG8y2s44W47PomPfPJ-22" value="" style="shape=flexArrow;endArrow=classic;html=1;entryX=0.96;entryY=0.7;entryDx=0;entryDy=0;entryPerimeter=0;fillColor=#ffffff;" edge="1" parent="DqfIb0BlEA46qqVhE4fC-1" source="-0pG8y2s44W47PomPfPJ-11" target="-0pG8y2s44W47PomPfPJ-3">
          <mxGeometry width="50" height="50" relative="1" as="geometry">
            <mxPoint x="530" y="103.33382159074267" as="sourcePoint" />
            <mxPoint x="316.9200000000001" y="132.93000000000006" as="targetPoint" />
          </mxGeometry>
        </mxCell>
        <mxCell id="-0pG8y2s44W47PomPfPJ-23" value="Changes in Technology&amp;nbsp;" style="text;html=1;align=center;verticalAlign=middle;resizable=0;points=[];autosize=1;fontSize=19;fontStyle=1" vertex="1" parent="DqfIb0BlEA46qqVhE4fC-1">
          <mxGeometry x="15" y="480" width="230" height="30" as="geometry" />
        </mxCell>
        <mxCell id="-0pG8y2s44W47PomPfPJ-24" value="" style="shape=flexArrow;endArrow=classic;html=1;entryX=0.96;entryY=0.7;entryDx=0;entryDy=0;entryPerimeter=0;fillColor=#ffffff;" edge="1" parent="DqfIb0BlEA46qqVhE4fC-1">
          <mxGeometry width="50" height="50" relative="1" as="geometry">
            <mxPoint x="160" y="480" as="sourcePoint" />
            <mxPoint x="160.00000000000017" y="350" as="targetPoint" />
          </mxGeometry>
        </mxCell>
        <mxCell id="-0pG8y2s44W47PomPfPJ-25" value="Technical Debt" style="text;html=1;align=center;verticalAlign=middle;resizable=0;points=[];autosize=1;fontSize=19;fontStyle=1" vertex="1" parent="DqfIb0BlEA46qqVhE4fC-1">
          <mxGeometry x="449" y="470" width="150" height="30" as="geometry" />
        </mxCell>
        <mxCell id="-0pG8y2s44W47PomPfPJ-26" value="" style="shape=flexArrow;endArrow=classic;html=1;entryX=0.829;entryY=0.803;entryDx=0;entryDy=0;entryPerimeter=0;endWidth=20;endSize=11.38;fillColor=#ffffff;" edge="1" parent="DqfIb0BlEA46qqVhE4fC-1" target="-0pG8y2s44W47PomPfPJ-3">
          <mxGeometry width="50" height="50" relative="1" as="geometry">
            <mxPoint x="440" y="480" as="sourcePoint" />
            <mxPoint x="170" y="360" as="targetPoint" />
            <Array as="points" />
          </mxGeometry>
        </mxCell>
      </root>
    </mxGraphModel>
  </diagram>
  <diagram id="S66SvheN5WLPLgfqhXdK" name="Page-3">
    <mxGraphModel dx="1422" dy="774" grid="1" gridSize="10" guides="1" tooltips="1" connect="1" arrows="1" fold="1" page="1" pageScale="1" pageWidth="827" pageHeight="1169" math="0" shadow="0">
      <root>
        <mxCell id="po_tTdhYFvjaKLonKiOn-0" />
        <mxCell id="po_tTdhYFvjaKLonKiOn-1" parent="po_tTdhYFvjaKLonKiOn-0" />
      </root>
    </mxGraphModel>
  </diagram>
</mxfile>
